Coordinates
version=1
nRows=12
nColumns=24
inDegrees=yes

Units are S.I. units (second, meters, Newtons, ...)
Angles are in degrees.

endheader
time	pelvis_tilt	pelvis_list	pelvis_rotation	pelvis_tx	pelvis_ty	pelvis_tz	hip_flexion_r	hip_adduction_r	hip_rotation_r	knee_angle_r	ankle_angle_r	subtalar_angle_r	mtp_angle_r	hip_flexion_l	hip_adduction_l	hip_rotation_l	knee_angle_l	ankle_angle_l	subtalar_angle_l	mtp_angle_l	lumbar_extension	lumbar_bending	lumbar_rotation
      5.10000000	     -2.42294297	      8.11443808	     26.09116067	      0.85162569	      0.65339607	     -0.21025182	     23.60619300	    -14.47866203	     -2.02969571	    -10.09047510	     -1.96383090	    -20.57598361	      0.00000000	    -12.84262597	      4.19772325	     12.02758540	    -23.42674084	     18.18115717	      3.30968522	      0.00000000	    -27.84842474	     -3.66656897	    -21.09805186
      5.11000000	     -1.99991415	      7.63026106	     25.65217203	      0.86586216	      0.65280235	     -0.20834979	     24.23002294	    -13.31231422	     -2.01625354	    -13.49170425	     -3.20391624	    -22.97255566	      0.00000000	    -12.59958064	      3.26234534	     11.55659535	    -25.98883631	     15.97088208	      2.57881077	      0.00000000	    -27.85028742	     -3.45916554	    -20.84883388
      5.12000000	     -1.42830396	      7.06259758	     25.04292475	      0.88004715	      0.65260589	     -0.20621667	     24.83224156	    -11.92887900	     -2.24457014	    -17.09203427	     -3.33333535	    -23.97550135	      0.00000000	    -12.21235403	      2.23977058	     10.58106445	    -28.83743575	     13.15151168	      1.80125733	      0.00000000	    -28.04952423	     -3.13941137	    -20.47791870
      5.13000000	     -0.83067100	      6.57092248	     24.38694468	      0.89410309	      0.65279754	     -0.20396057	     25.17142722	    -10.49636714	     -2.16667890	    -20.29571342	     -3.11681467	    -24.74413961	      0.00000000	    -11.64532999	      1.36317006	      9.50280651	    -31.89635145	      9.21132201	      0.15779240	      0.00000000	    -28.40632188	     -2.89887408	    -20.17754939
      5.14000000	     -0.12884215	      6.04451311	     23.72984292	      0.90810815	      0.65337008	     -0.20163883	     25.08679117	     -8.92467052	     -2.10174293	    -22.89387691	     -2.38997528	    -25.06149392	      0.00000000	    -10.90578801	      0.41793503	      8.20286264	    -35.16092533	      4.41044004	     -2.03239420	      0.00000000	    -28.89167865	     -2.60370050	    -19.87850500
      5.15000000	      0.58539141	      5.55898379	     23.16994099	      0.92200181	      0.65422038	     -0.19932123	     24.56108758	     -7.34512443	     -1.95627976	    -24.79009383	     -1.38439964	    -25.41406791	      0.00000000	     -9.93596077	     -0.50298403	      6.89826255	    -38.59034620	     -1.15521470	     -4.89307718	      0.00000000	    -29.41904716	     -2.37148630	    -19.65834514
      5.16000000	      1.26832077	      5.16047205	     22.72376119	      0.93573750	      0.65525722	     -0.19704227	     23.65432047	     -5.83624652	     -1.70148824	    -26.06080053	     -0.28430670	    -26.02274843	      0.00000000	     -8.73877793	     -1.33221454	      5.70436408	    -42.12621476	     -7.07828190	     -8.39340243	      0.00000000	    -29.93078053	     -2.26736762	    -19.52349850
      5.17000000	      1.88230816	      4.89516112	     22.38008853	      0.94925703	      0.65643160	     -0.19484824	     22.47032217	     -4.47966308	     -1.33554288	    -26.84788794	      0.81053469	    -26.86151704	      0.00000000	     -7.33989554	     -1.97913782	      4.69224950	    -45.70098705	    -12.83048435	    -12.49527742	      0.00000000	    -30.38642102	     -2.34097172	    -19.44169588
      5.18000000	      2.40260048	      4.75926360	     22.07849304	      0.96248666	      0.65774521	     -0.19276576	     21.14075769	     -3.30894425	     -0.92631032	    -27.29376436	      1.86511406	    -27.76673063	      0.00000000	     -5.76601231	     -2.38301865	      3.86538222	    -49.23963901	    -17.94590206	    -17.13733210	      0.00000000	    -30.76832160	     -2.58973548	    -19.31486867
      5.19000000	      2.84124722	      4.65445789	     21.75395420	      0.97541016	      0.65923734	     -0.19079960	     19.73961551	     -2.23134938	     -0.48627346	    -27.45334777	      2.88767109	    -28.49009342	      0.00000000	     -4.03862353	     -2.62723918	      3.12010998	    -52.66834572	    -22.01840288	    -22.24721132	      0.00000000	    -31.04313454	     -2.89937778	    -19.14538026
      5.20000000	      3.19139558	      4.54832686	     21.33901811	      0.98803002	      0.66096476	     -0.18896968	     18.33295276	     -1.24763544	     -0.11701559	    -27.37414938	      3.94455967	    -28.88429996	      0.00000000	     -2.19872140	     -2.71493927	      2.41341260	    -55.86579861	    -24.94433305	    -27.57253520	      0.00000000	    -31.20084958	     -3.25000453	    -18.76181661
      5.21000000	      3.45494777	      4.39918610	     20.78387375	      1.00039528	      0.66296647	     -0.18726247	     16.92494867	     -0.31846691	      0.19289016	    -27.03046123	      5.03113771	    -28.82569956	      0.00000000	     -0.27433326	     -2.69923951	      1.69466593	    -58.73300614	    -26.57890270	    -32.61410742	      0.00000000	    -31.22387568	     -3.61851579	    -18.12184189
